<svg xmlns="http://www.w3.org/2000/svg" viewBox="0 0 192 192" fill="none">
  <rect width="192" height="192" rx="42" fill="url(#gradient)"/>
  <defs>
    <linearGradient id="gradient" x1="0%" y1="0%" x2="100%" y2="100%">
      <stop offset="0%" style="stop-color:#667eea;stop-opacity:1" />
      <stop offset="100%" style="stop-color:#764ba2;stop-opacity:1" />
    </linearGradient>
  </defs>
  
  <!-- Microphone -->
  <path d="M96 32C88 32 82 38 82 46V82C82 90 88 96 96 96C104 96 110 90 110 82V46C110 38 104 32 96 32Z" fill="white" opacity="0.95"/>
  <path d="M70 72V82C70 100 84 114 102 117V132H116V140H76V148H116V140H110V132V117C128 114 142 100 142 82V72H134V82C134 96 122 108 108 110C94 108 82 96 82 82V72H70Z" fill="white" opacity="0.95"/>
  
  <!-- Document/Notes background -->
  <rect x="52" y="110" width="88" height="52" rx="8" fill="white" opacity="0.25"/>
  <line x1="64" y1="126" x2="108" y2="126" stroke="white" stroke-width="4" stroke-linecap="round" opacity="0.6"/>
  <line x1="64" y1="138" x2="120" y2="138" stroke="white" stroke-width="4" stroke-linecap="round" opacity="0.6"/>
  <line x1="64" y1="150" x2="100" y2="150" stroke="white" stroke-width="4" stroke-linecap="round" opacity="0.6"/>
  
  <!-- AI Sparkles -->
  <circle cx="154" cy="48" r="8" fill="#FFD700"/>
  <path d="M154 32L154 64M138 48L170 48" stroke="#FFD700" stroke-width="4" stroke-linecap="round"/>
  <circle cx="148" cy="68" r="4" fill="#FFF" opacity="0.8"/>
  <circle cx="166" cy="62" r="3" fill="#FFF" opacity="0.6"/>
</svg>
